<svg width="1920" height="928" viewBox="0 0 1920 928" fill="none" xmlns="http://www.w3.org/2000/svg">
<g filter="url(#filter0_d)">
<path d="M1950 929L1926.03 892.841V26.2257C1871.18 -11.3952 1783.28 -8.13833 1732.55 33.4063C1689.99 68.2576 1667.87 127.138 1610.08 137.935C1542.7 150.526 1491.97 87.9784 1429.47 63.2825C1386.28 46.2287 1333.28 48.2803 1292.11 68.6422C1250.95 88.9786 1222.73 127.061 1218.98 167.323C1216.05 198.969 1227.24 230.205 1230.76 261.799C1234.24 293.393 1227.7 329.168 1198.19 348.735C1161.02 373.405 1107.59 361.378 1062.07 350.71C1016.58 340.041 958.944 335.143 930.521 367.071C887.025 416.001 958.883 497.936 910.786 543.661C883.817 569.306 834.358 565.28 797.914 550.252C761.441 535.224 729.749 511.502 690.733 502.142C622.931 485.883 543.839 524.094 525.799 581.795C517.596 608.055 520.805 635.88 516.264 662.781C511.724 689.683 496.015 718.379 465.716 727.278C436.174 735.971 403.635 722.688 380.116 705.172C356.597 687.682 337.619 665.628 311.255 651.369C284.891 637.111 246.51 633.11 224.535 651.959C207.222 666.833 204.891 691.555 185.822 704.787C151.315 728.791 102.462 696.53 57.9668 693.299C3.08971 689.298 -45.098 743.332 -25.5747 786.953V928.974H1950V929Z" fill="#383B40"/>
</g>
<defs>
<filter id="filter0_d" x="-34" y="0" width="1988" height="937" filterUnits="userSpaceOnUse" color-interpolation-filters="sRGB">
<feFlood flood-opacity="0" result="BackgroundImageFix"/>
<feColorMatrix in="SourceAlpha" type="matrix" values="0 0 0 0 0 0 0 0 0 0 0 0 0 0 0 0 0 0 127 0"/>
<feOffset dy="4"/>
<feGaussianBlur stdDeviation="2"/>
<feColorMatrix type="matrix" values="0 0 0 0 0 0 0 0 0 0 0 0 0 0 0 0 0 0 0.25 0"/>
<feBlend mode="normal" in2="BackgroundImageFix" result="effect1_dropShadow"/>
<feBlend mode="normal" in="SourceGraphic" in2="effect1_dropShadow" result="shape"/>
</filter>
</defs>
</svg>
